<?xml version="1.0" encoding="utf-8"?>
<!-- Generator: Adobe Illustrator 14.0.0, SVG Export Plug-In . SVG Version: 6.00 Build 43363)  -->
<!DOCTYPE svg PUBLIC "-//W3C//DTD SVG 1.1//EN" "http://www.w3.org/Graphics/SVG/1.1/DTD/svg11.dtd">
<svg version="1.1" xmlns="http://www.w3.org/2000/svg" xmlns:xlink="http://www.w3.org/1999/xlink" x="0px" y="0px" width="800" height="720" viewBox="411.5 200 186 310" preserveAspectRatio="xMidYMin slice" enable-background="new 0 0 512 384" xml:space="preserve" >

<g id="Layer_2" transform="scale(1.0)">
	<path fill="none" stroke="#000000" stroke-width="12" d="M464.458,284.227"/>
	<polyline fill="none" stroke="#000000" stroke-width="12" points="483.907,250.533 504.486,214.882 550.789,295.098 
		483.907,333.72 442.748,357.488 422.169,357.488 442.748,321.837 504.485,286.186 483.907,250.533 463.328,286.185 463.327,311 	
		"/>
	<polyline fill="none" stroke="#000000" stroke-width="12" points="489.051,330.75 504.485,357.488 586.803,357.488 
		566.224,321.837 545.645,333.721 	"/>
	<line fill="none" stroke="#000000" stroke-width="12" x1="566.224" y1="321.837" x2="504.485" y2="357.488"/>
	<path fill="none" stroke="#000000" stroke-width="12" d="M473.617,268.359"/>
	<path fill="none" stroke="#000000" stroke-width="12" d="M537.927,268.359"/>
	<path fill="none" stroke="#000000" stroke-width="12" d="M489.051,241.622" />
	<line fill="none" stroke="#000000" stroke-width="12" x1="504.485" y1="286.186" x2="550.789" y2="295.098"/>
</g>


<defs>
        <clipPath id="TriangleClip">
            <polygon points="25% 25%, 25% 75%, 75% 75%, 50% 25%"/>
        </clipPath>
    </defs>
</svg>



