<?xml version="1.0" encoding="utf-8"?>
<!-- Generator: Adobe Illustrator 14.0.0, SVG Export Plug-In . SVG Version: 6.00 Build 43363)  -->
<!DOCTYPE svg PUBLIC "-//W3C//DTD SVG 1.1//EN" "http://www.w3.org/Graphics/SVG/1.1/DTD/svg11.dtd">
<svg version="1.1" id="Layer_1" xmlns="http://www.w3.org/2000/svg" xmlns:xlink="http://www.w3.org/1999/xlink" x="0px" y="0px"
	 width="800px" height="720px" viewBox="0 0 800 720" enable-background="new 0 0 800 720" xml:space="preserve">
<g>
	<line fill="none" stroke="#FFFFFF" stroke-width="50" x1="651.252" y1="693.696" x2="34" y2="693.696"/>
	<path fill="none" stroke="#FFFFFF" stroke-width="50" d="M655.492,320.295"/>
	<path fill="none" stroke="#FFFFFF" stroke-width="50" d="M241.163,320.295"/>
	<path fill="none" stroke="#FFFFFF" stroke-width="50" d="M241.163,693.696"/>
	<path fill="none" stroke="#FFFFFF" stroke-width="50" d="M446.208,506.995"/>
	<line fill="none" stroke="#FFFFFF" stroke-width="50" x1="651.252" y1="693.696" x2="241.163" y2="693.696"/>
	<path fill="none" stroke="#FFFFFF" stroke-width="50" d="M651.252,320.295"/>
	<polyline fill="none" stroke="#FFFFFF" stroke-width="50" stroke-linejoin="bevel" points="547.669,506.995 241.163,506.995 
		241.163,693.696 547.669,506.995 	"/>
	<line fill="none" stroke="#FFFFFF" stroke-width="50" x1="34" y1="600.346" x2="241.163" y2="600.346"/>
	<path fill="none" stroke="#FFFFFF" stroke-width="50" d="M278.538,230.178"/>
	<path fill="none" stroke="#FFFFFF" stroke-width="50" d="M278.538,416.879"/>
	<polyline fill="none" stroke="#FFFFFF" stroke-width="50" points="446.208,506.995 547.669,506.995 547.669,693.696 
		446.208,693.696 	"/>
	<rect x="34" y="600.346" fill="none" stroke="#FFFFFF" stroke-width="50" width="207.163" height="93.352"/>
	<path fill="none" stroke="#FFFFFF" stroke-width="50" d="M759.074,788.92"/>
	<path fill="none" stroke="#FFFFFF" stroke-width="50" d="M759.074,226.944"/>
	<polyline fill="none" stroke="#FFFFFF" stroke-width="50" points="651.252,320.295 759.074,320.295 759.074,693.696 
		651.252,693.696 	"/>
</g>
<rect x="547.669" y="320.295" fill="none" stroke="#FFFFFF" stroke-width="50" width="211.405" height="373.401"/>
</svg>
