<?xml version="1.0" encoding="utf-8"?>
<!-- Generator: Adobe Illustrator 14.0.0, SVG Export Plug-In . SVG Version: 6.00 Build 43363)  -->
<!DOCTYPE svg PUBLIC "-//W3C//DTD SVG 1.1//EN" "http://www.w3.org/Graphics/SVG/1.1/DTD/svg11.dtd">
<svg version="1.1" id="Layer_1" xmlns="http://www.w3.org/2000/svg" xmlns:xlink="http://www.w3.org/1999/xlink" x="0px" y="0px"
	 width="800px" height="720px" viewBox="0 0 800 720" enable-background="new 0 0 800 720" xml:space="preserve">
<path fill="none" stroke="#FFFFFF" stroke-width="50" d="M638.198,531.376"/>
<path fill="none" stroke="#FFFFFF" stroke-width="50" d="M475.83,693.743"/>
<path fill="none" stroke="#FFFFFF" stroke-width="50" d="M392.15,207.407"/>
<path fill="none" stroke="#FFFFFF" stroke-width="50" d="M146.103,450.576"/>
<path fill="none" stroke="#FFFFFF" stroke-width="50" d="M638.198,450"/>
<path fill="none" stroke="#FFFFFF" stroke-width="50" d="M392.15,693.743"/>
<path fill="none" stroke="#FFFFFF" stroke-width="50" d="M474.969,611.697"/>
<path fill="none" stroke="#FFFFFF" stroke-width="50" d="M556.534,530.896"/>
<path fill="none" stroke="#FFFFFF" stroke-width="50" d="M476.213,450.576"/>
<polygon fill="none" stroke="#FFFFFF" stroke-width="50" points="230.469,367.198 151.862,288.591 151.862,207.407 233.045,207.407 
	312.131,286.494 "/>
<polyline fill="none" stroke="#FFFFFF" stroke-width="50" points="476.212,450.575 638.197,288.591 638.197,207.407 
	557.014,207.407 151.862,612.56 151.862,693.743 233.045,693.743 395.03,531.758 "/>
<line fill="none" stroke="#FFFFFF" stroke-width="50" x1="395.03" y1="531.758" x2="476.212" y2="450.575"/>
<path fill="none" stroke="#FFFFFF" stroke-width="50" d="M556.534,530.896"/>
<path fill="none" stroke="#FFFFFF" stroke-width="50" d="M556.534,530.896"/>
<polyline fill="none" stroke="#FFFFFF" stroke-width="50" stroke-linecap="square" points="556.534,530.896 638.197,612.56 
	638.197,693.743 557.014,693.743 474.969,611.697 556.534,530.896 "/>
</svg>
